<?xml version="1.0" encoding="utf-8"?>
<!-- Generator: Adobe Illustrator 26.0.2, SVG Export Plug-In . SVG Version: 6.00 Build 0)  -->
<svg version="1.1" id="Layer_1" xmlns="http://www.w3.org/2000/svg" xmlns:xlink="http://www.w3.org/1999/xlink" x="0px" y="0px"
	 viewBox="0 0 843 441" style="enable-background:new 0 0 843 441;" xml:space="preserve">
<style type="text/css">
	.st0{clip-path:url(#SVGID_00000117678824637599646950000003918529060130952374_);}
	.st1{fill:#FFFFFF;}
	.st2{fill:none;stroke:url(#SVGID_00000051378980447114649590000005275827327749893027_);stroke-width:1.165;}
	.st3{fill:none;stroke:url(#SVGID_00000173161906321033160130000012058412465495480967_);stroke-width:1.165;}
	.st4{fill:none;stroke:url(#SVGID_00000167384718397818127440000015230898172201235108_);stroke-width:1.165;}
	.st5{fill:none;stroke:url(#SVGID_00000000929381340228433140000001123733495935943329_);stroke-width:1.165;}
	.st6{fill:none;stroke:url(#SVGID_00000018947260308416575150000010589871136522618513_);stroke-width:1.165;}
	.st7{fill:none;stroke:#FF3E00;stroke-width:1.165;}
	.st8{fill:none;stroke:#999999;stroke-width:1.165;}
	.st9{fill:none;stroke:#999999;stroke-width:3.5625;stroke-linecap:round;stroke-linejoin:round;}
	.st10{fill:none;}
	.st11{fill:#FF3E00;}
</style>
<g>
	<defs>
		<rect id="SVGID_1_" width="843" height="441"/>
	</defs>
	<clipPath id="SVGID_00000078014315119278895770000017516212854687710869_">
		<use xlink:href="#SVGID_1_"  style="overflow:visible;"/>
	</clipPath>
	<g style="clip-path:url(#SVGID_00000078014315119278895770000017516212854687710869_);">
		<rect class="st1" width="843" height="441"/>
		
			<linearGradient id="SVGID_00000107548301630486309200000002691976299514026144_" gradientUnits="userSpaceOnUse" x1="420" y1="381.9995" x2="420" y2="60.0005" gradientTransform="matrix(1 0 0 -1 0 442)">
			<stop  offset="0.4635" style="stop-color:#F4F4F4"/>
			<stop  offset="1" style="stop-color:#D1D1D1;stop-opacity:0"/>
		</linearGradient>
		
			<circle style="fill:none;stroke:url(#SVGID_00000107548301630486309200000002691976299514026144_);stroke-width:1.165;" cx="420" cy="221" r="160.4"/>
		
			<linearGradient id="SVGID_00000085963330741459681970000004936074725243328682_" gradientUnits="userSpaceOnUse" x1="418" y1="324.9995" x2="418" y2="117.0005" gradientTransform="matrix(1 0 0 -1 0 442)">
			<stop  offset="0.4635" style="stop-color:#DFDFDF"/>
			<stop  offset="1" style="stop-color:#ADADAD;stop-opacity:0"/>
		</linearGradient>
		
			<circle style="fill:none;stroke:url(#SVGID_00000085963330741459681970000004936074725243328682_);stroke-width:1.165;" cx="418" cy="221" r="103.4"/>
		
			<linearGradient id="SVGID_00000160164538244043161120000018342028080259403663_" gradientUnits="userSpaceOnUse" x1="418" y1="275" x2="418" y2="167" gradientTransform="matrix(1 0 0 -1 0 442)">
			<stop  offset="0.4635" style="stop-color:#CFCFCF"/>
			<stop  offset="1" style="stop-color:#AEAEAE;stop-opacity:0"/>
		</linearGradient>
		
			<circle style="fill:none;stroke:url(#SVGID_00000160164538244043161120000018342028080259403663_);stroke-width:1.165;" cx="418" cy="221" r="53.4"/>
		
			<linearGradient id="SVGID_00000000187461146467426140000012341023054994584210_" gradientUnits="userSpaceOnUse" x1="419.876" y1="488.7885" x2="419.876" y2="-46.9665" gradientTransform="matrix(1 0 0 -1 0 442)">
			<stop  offset="8.854170e-02" style="stop-color:#F9F9F9;stop-opacity:0"/>
			<stop  offset="0.4635" style="stop-color:#E1E1E1"/>
			<stop  offset="0.8958" style="stop-color:#FFFFFF;stop-opacity:0"/>
		</linearGradient>
		
			<circle style="fill:none;stroke:url(#SVGID_00000000187461146467426140000012341023054994584210_);stroke-width:1.165;" cx="419.9" cy="221.1" r="267.3"/>
		
			<linearGradient id="SVGID_00000017489243642533754670000002035590514266513025_" gradientUnits="userSpaceOnUse" x1="419.875" y1="610.0005" x2="419.875" y2="-168.1785" gradientTransform="matrix(1 0 0 -1 0 442)">
			<stop  offset="0.1719" style="stop-color:#FFFFFF;stop-opacity:0"/>
			<stop  offset="0.4635" style="stop-color:#F2F2F2"/>
			<stop  offset="0.7708" style="stop-color:#FFFFFF;stop-opacity:0"/>
		</linearGradient>
		
			<circle style="fill:none;stroke:url(#SVGID_00000017489243642533754670000002035590514266513025_);stroke-width:1.165;" cx="419.9" cy="221.1" r="388.5"/>
		<g>
			<circle class="st1" cx="176.4" cy="331.4" r="6.4"/>
			<circle class="st7" cx="176.4" cy="331.4" r="5.8"/>
		</g>
		<g>
			<circle class="st1" cx="183.4" cy="96.4" r="6.4"/>
			<circle class="st7" cx="183.4" cy="96.4" r="5.8"/>
		</g>
		<g>
			<circle class="st1" cx="350.4" cy="142.4" r="6.4"/>
			<circle class="st8" cx="350.4" cy="142.4" r="5.8"/>
		</g>
		<g>
			<circle class="st1" cx="522.4" cy="96.4" r="6.4"/>
			<circle class="st7" cx="522.4" cy="96.4" r="5.8"/>
		</g>
		<g>
			<circle class="st1" cx="671.4" cy="314.4" r="6.4"/>
			<circle class="st8" cx="671.4" cy="314.4" r="5.8"/>
		</g>
		<path d="M336.4,261l-46.2-80L244,261H336.4z"/>
		<path class="st9" d="M419,203.5v35"/>
		<path class="st9" d="M401.5,221h35"/>
		<rect x="510" y="181" class="st10" width="66" height="80"/>
	</g>
</g>
<g>
	<path class="st11" d="M570.1,191.9c-6.9-10.6-20.7-13.8-30.6-7l-17.4,11.9c-4.8,3.2-8,8.4-9,14.3c-0.8,4.9-0.1,10,2.1,14.5
		c-1.5,2.4-2.5,5.1-3,8c-1,6,0.3,12.3,3.6,17.3c6.9,10.7,20.7,13.8,30.6,7l17.4-11.9c4.8-3.2,8-8.4,9-14.3c0.8-4.9,0.1-10-2.1-14.5
		c1.5-2.4,2.5-5.1,3-8C574.7,203.1,573.4,196.8,570.1,191.9"/>
	<path class="st1" d="M537.8,251.8c-5.6,1.6-11.5-0.8-14.8-5.9c-2-3-2.8-6.7-2.2-10.4c0.1-0.6,0.2-1.2,0.4-1.7l0.3-1.1l0.9,0.7
		c2.1,1.6,4.4,2.9,6.8,3.6l0.6,0.2l-0.1,0.7c-0.1,1,0.2,2,0.7,2.8c1,1.5,2.8,2.2,4.5,1.8c0.4-0.1,0.7-0.3,1.1-0.5l17.4-11.9
		c0.9-0.6,1.5-1.5,1.6-2.6c0.2-1.1-0.1-2.2-0.7-3.1c-1-1.5-2.8-2.2-4.5-1.8c-0.4,0.1-0.7,0.3-1.1,0.5l-6.6,4.5
		c-1.1,0.7-2.3,1.3-3.5,1.7c-5.6,1.6-11.5-0.8-14.8-5.9c-2-3-2.8-6.7-2.2-10.4c0.6-3.6,2.6-6.7,5.4-8.6l17.4-11.9
		c1.1-0.7,2.3-1.3,3.5-1.7c5.6-1.6,11.5,0.8,14.8,5.9c2,3,2.8,6.7,2.2,10.4c-0.1,0.6-0.2,1.2-0.4,1.7l-0.3,1.1l-0.9-0.7
		c-2.1-1.6-4.4-2.9-6.8-3.6l-0.6-0.2l0.1-0.7c0.1-1-0.2-2-0.7-2.8c-1-1.5-2.8-2.2-4.5-1.8c-0.4,0.1-0.7,0.3-1.1,0.5l-17.4,11.9
		c-0.9,0.6-1.5,1.5-1.6,2.6c-0.2,1.1,0.1,2.2,0.7,3.1c1,1.5,2.8,2.2,4.5,1.8c0.4-0.1,0.7-0.3,1.1-0.5l6.6-4.5
		c1.1-0.7,2.3-1.3,3.5-1.7c5.6-1.6,11.5,0.8,14.8,5.9c2,3,2.8,6.7,2.2,10.4c-0.6,3.6-2.6,6.7-5.4,8.6l-17.4,11.9
		C540.3,250.9,539.1,251.4,537.8,251.8"/>
</g>
</svg>
